<svg width="56" height="35" viewBox="0 0 56 35" fill="none" xmlns="http://www.w3.org/2000/svg">
<path d="M13.1304 14.2609L14.2148 13.3891L12.9905 11.8662L11.9519 13.5214L13.1304 14.2609ZM27.3913 32L26.307 32.8717L27.3429 34.1604L28.4355 32.9194L27.3913 32ZM55.5652 0L40.3424 5.13435L52.4003 15.7506L55.5652 0ZM3.17852 32.7395L14.309 15.0003L11.9519 13.5214L0.821477 31.2605L3.17852 32.7395ZM12.0461 15.1326L26.307 32.8717L28.4756 31.1283L14.2148 13.3891L12.0461 15.1326ZM28.4355 32.9194L48.3349 10.3176L46.2465 8.47882L26.3471 31.0806L28.4355 32.9194Z" fill="#C317FF"/>
</svg>
