<svg width="55" height="35" viewBox="0 0 55 35" fill="none" xmlns="http://www.w3.org/2000/svg">
<path d="M42.434 14.2609L41.3497 13.3891L42.574 11.8662L43.6125 13.5214L42.434 14.2609ZM28.1732 32L29.2575 32.8717L28.2215 34.1604L27.1289 32.9194L28.1732 32ZM-0.00075531 0L15.2221 5.13435L3.16419 15.7506L-0.00075531 0ZM52.3859 32.7395L41.2555 15.0003L43.6125 13.5214L54.743 31.2605L52.3859 32.7395ZM43.5184 15.1326L29.2575 32.8717L27.0888 31.1283L41.3497 13.3891L43.5184 15.1326ZM27.1289 32.9194L7.22951 10.3176L9.318 8.47882L29.2174 31.0806L27.1289 32.9194Z" fill="#129A7F"/>
</svg>
