<svg width="24" height="24" viewBox="0 0 24 24" fill="none" xmlns="http://www.w3.org/2000/svg">
<path fill-rule="evenodd" clip-rule="evenodd" d="M4 8C4 6.80653 4.47411 5.66193 5.31802 4.81802C6.16193 3.97411 7.30653 3.5 8.5 3.5H18.5C18.8978 3.5 19.2794 3.65804 19.5607 3.93934C19.842 4.22064 20 4.60218 20 5V20C20 20.2652 19.8946 20.5196 19.7071 20.7071C19.5196 20.8946 19.2652 21 19 21H7.5C6.65822 21.0002 5.84455 20.697 5.20815 20.146C4.57175 19.5951 4.15525 18.8331 4.035 18H4V8ZM18.5 15.5H7.5C6.96957 15.5 6.46086 15.7107 6.08579 16.0858C5.71071 16.4609 5.5 16.9696 5.5 17.5C5.5 18.0304 5.71071 18.5391 6.08579 18.9142C6.46086 19.2893 6.96957 19.5 7.5 19.5H18.5V15.5ZM8.25 8C8.25 7.80109 8.32902 7.61032 8.46967 7.46967C8.61032 7.32902 8.80109 7.25 9 7.25H16C16.1989 7.25 16.3897 7.32902 16.5303 7.46967C16.671 7.61032 16.75 7.80109 16.75 8C16.75 8.19891 16.671 8.38968 16.5303 8.53033C16.3897 8.67098 16.1989 8.75 16 8.75H9C8.80109 8.75 8.61032 8.67098 8.46967 8.53033C8.32902 8.38968 8.25 8.19891 8.25 8ZM9 10.25C8.80109 10.25 8.61032 10.329 8.46967 10.4697C8.32902 10.6103 8.25 10.8011 8.25 11C8.25 11.1989 8.32902 11.3897 8.46967 11.5303C8.61032 11.671 8.80109 11.75 9 11.75H14C14.1989 11.75 14.3897 11.671 14.5303 11.5303C14.671 11.3897 14.75 11.1989 14.75 11C14.75 10.8011 14.671 10.6103 14.5303 10.4697C14.3897 10.329 14.1989 10.25 14 10.25H9Z" fill="#138601"/>
</svg>
