<svg width="44" height="44" viewBox="0 0 44 44" fill="none" xmlns="http://www.w3.org/2000/svg">
<circle cx="22" cy="22" r="22" fill="#138601" fill-opacity="0.12"/>
<path fill-rule="evenodd" clip-rule="evenodd" d="M14 18C14 16.8065 14.4741 15.6619 15.318 14.818C16.1619 13.9741 17.3065 13.5 18.5 13.5H28.5C28.8978 13.5 29.2794 13.658 29.5607 13.9393C29.842 14.2206 30 14.6022 30 15V30C30 30.2652 29.8946 30.5196 29.7071 30.7071C29.5196 30.8946 29.2652 31 29 31H17.5C16.6582 31.0002 15.8446 30.697 15.2082 30.146C14.5718 29.5951 14.1553 28.8331 14.035 28H14V18ZM28.5 25.5H17.5C16.9696 25.5 16.4609 25.7107 16.0858 26.0858C15.7107 26.4609 15.5 26.9696 15.5 27.5C15.5 28.0304 15.7107 28.5391 16.0858 28.9142C16.4609 29.2893 16.9696 29.5 17.5 29.5H28.5V25.5ZM18.25 18C18.25 17.8011 18.329 17.6103 18.4697 17.4697C18.6103 17.329 18.8011 17.25 19 17.25H26C26.1989 17.25 26.3897 17.329 26.5303 17.4697C26.671 17.6103 26.75 17.8011 26.75 18C26.75 18.1989 26.671 18.3897 26.5303 18.5303C26.3897 18.671 26.1989 18.75 26 18.75H19C18.8011 18.75 18.6103 18.671 18.4697 18.5303C18.329 18.3897 18.25 18.1989 18.25 18ZM19 20.25C18.8011 20.25 18.6103 20.329 18.4697 20.4697C18.329 20.6103 18.25 20.8011 18.25 21C18.25 21.1989 18.329 21.3897 18.4697 21.5303C18.6103 21.671 18.8011 21.75 19 21.75H24C24.1989 21.75 24.3897 21.671 24.5303 21.5303C24.671 21.3897 24.75 21.1989 24.75 21C24.75 20.8011 24.671 20.6103 24.5303 20.4697C24.3897 20.329 24.1989 20.25 24 20.25H19Z" fill="#138601"/>
</svg>
