<svg width="20" height="20" viewBox="0 0 20 20" fill="none" xmlns="http://www.w3.org/2000/svg">
<path d="M1.80297 7.08362C1.66797 8.00278 1.66797 9.20862 1.66797 10.8336C1.66797 13.9761 1.66797 15.5478 2.64464 16.5236C3.62047 17.5003 5.19214 17.5003 8.33464 17.5003H11.668C14.8105 17.5003 16.3821 17.5003 17.358 16.5236C18.3346 15.5478 18.3346 13.9761 18.3346 10.8336C18.3346 9.20862 18.3346 8.00362 18.1996 7.08362C16.3021 8.31695 15.0863 9.10362 13.9596 9.58778V10.0003C13.9615 10.166 13.8975 10.3258 13.7816 10.4443C13.6657 10.5628 13.5075 10.6305 13.3417 10.6324C13.176 10.6342 13.0162 10.5702 12.8977 10.4543C12.7792 10.3384 12.7115 10.1802 12.7096 10.0145C10.9344 10.4824 9.0682 10.4824 7.29297 10.0145C7.29109 10.1802 7.22344 10.3384 7.1049 10.4543C6.98636 10.5702 6.82665 10.6342 6.66089 10.6324C6.49512 10.6305 6.3369 10.5628 6.22102 10.4443C6.10514 10.3258 6.04109 10.166 6.04297 10.0003V9.58778C4.9163 9.10278 3.7013 8.31695 1.80297 7.08362Z" fill="#181C17" fill-opacity="0.72"/>
<path fill-rule="evenodd" clip-rule="evenodd" d="M8.81789 1.87529H8.80122C8.70622 1.87529 8.63289 1.87529 8.56289 1.87946C8.12992 1.90578 7.7133 2.05444 7.36148 2.30817C7.00965 2.5619 6.73706 2.91027 6.57539 3.31279C6.53987 3.40729 6.50653 3.50259 6.47539 3.59862L6.47206 3.60862C6.38633 3.83574 6.2413 4.03573 6.05206 4.18779C5.86206 4.19446 5.68122 4.20196 5.50789 4.21279C4.13789 4.29279 3.26872 4.51779 2.64372 5.14362C2.4404 5.34635 2.27351 5.58258 2.15039 5.84196C2.19872 5.85862 2.24539 5.88029 2.28956 5.90946C4.03956 7.04696 5.13956 7.75946 6.05372 8.21529C6.08356 8.06304 6.16895 7.92732 6.2933 7.83454C6.41765 7.74176 6.57207 7.69855 6.72651 7.71331C6.88096 7.72807 7.02439 7.79974 7.12892 7.91439C7.23345 8.02904 7.2916 8.17848 7.29206 8.33362V8.71529C9.05872 9.24862 10.9421 9.24862 12.7087 8.71529V8.33362C12.7081 8.17772 12.7658 8.02721 12.8704 7.91164C12.975 7.79607 13.1191 7.72378 13.2743 7.70896C13.4295 7.69414 13.5846 7.73786 13.7093 7.83154C13.8339 7.92521 13.919 8.06209 13.9479 8.21529C14.8612 7.75862 15.9612 7.04696 17.7112 5.90946C17.7547 5.8813 17.8014 5.85863 17.8504 5.84196C17.7269 5.58278 17.5601 5.3466 17.3571 5.14362C16.7321 4.51862 15.8629 4.29362 14.4929 4.21196C14.3287 4.20279 14.1571 4.19529 13.9779 4.18862C13.7679 4.01788 13.6057 3.79567 13.5071 3.54362L13.5046 3.53612C13.4746 3.44696 13.4521 3.37696 13.4254 3.31196C13.2636 2.90959 12.991 2.5614 12.6391 2.30782C12.2873 2.05425 11.8708 1.90571 11.4379 1.87946C11.3588 1.87573 11.2796 1.87434 11.2004 1.87529H8.81706H8.81789ZM12.3487 4.01362L12.3446 4.00446L12.3404 3.99446L12.3371 3.98446L12.3337 3.97612L12.3321 3.97196L12.3287 3.96196L12.3254 3.95196L12.3237 3.94696L12.3212 3.94029L12.3196 3.93446L12.3179 3.92946C12.3018 3.87872 12.2842 3.82842 12.2654 3.77862C12.1919 3.59564 12.068 3.43727 11.9081 3.32191C11.7482 3.20655 11.5589 3.13895 11.3621 3.12696C11.3024 3.12487 11.2426 3.12431 11.1829 3.12529H8.81789C8.69872 3.12529 8.66539 3.12529 8.63872 3.12696C8.44191 3.13895 8.25255 3.20655 8.09264 3.32191C7.93273 3.43727 7.80885 3.59564 7.73539 3.77862L7.73289 3.78446L7.72622 3.80196C7.70348 3.86538 7.68209 3.92929 7.66206 3.99362L7.66039 3.99862L7.65789 4.00446L7.65622 4.01112L7.65456 4.01612L7.65122 4.02612L7.64789 4.03612L7.64622 4.04029L7.64289 4.04862L7.63956 4.05862L7.63539 4.06862L7.63206 4.07696L7.63122 4.07779C7.61961 4.10804 7.60739 4.13804 7.59456 4.16779L8.33372 4.16696H12.4137C12.3904 4.11658 12.3687 4.06544 12.3487 4.01362Z" fill="#181C17" fill-opacity="0.72"/>
</svg>
