<svg width="44" height="44" viewBox="0 0 44 44" fill="none" xmlns="http://www.w3.org/2000/svg">
<circle cx="22" cy="22" r="22" fill="#00A3FF" fill-opacity="0.12"/>
<path d="M30.25 13.75H13.75C13.3522 13.75 12.9706 13.908 12.6893 14.1893C12.408 14.4706 12.25 14.8522 12.25 15.25V28.75C12.25 29.1478 12.408 29.5294 12.6893 29.8107C12.9706 30.092 13.3522 30.25 13.75 30.25H15.0053C15.1473 30.25 15.2863 30.2098 15.4063 30.134C15.5263 30.0581 15.6223 29.9498 15.6831 29.8216C16.0478 29.0516 16.6236 28.4009 17.3436 27.9453C18.0635 27.4897 18.898 27.2478 19.75 27.2478C20.602 27.2478 21.4365 27.4897 22.1564 27.9453C22.8764 28.4009 23.4522 29.0516 23.8169 29.8216C23.8777 29.9498 23.9737 30.0581 24.0937 30.134C24.2137 30.2098 24.3527 30.25 24.4947 30.25H30.25C30.6478 30.25 31.0294 30.092 31.3107 29.8107C31.592 29.5294 31.75 29.1478 31.75 28.75V15.25C31.75 14.8522 31.592 14.4706 31.3107 14.1893C31.0294 13.908 30.6478 13.75 30.25 13.75ZM19.75 25.75C19.1567 25.75 18.5766 25.5741 18.0833 25.2444C17.5899 24.9148 17.2054 24.4462 16.9784 23.8981C16.7513 23.3499 16.6919 22.7467 16.8076 22.1647C16.9234 21.5828 17.2091 21.0482 17.6287 20.6287C18.0482 20.2091 18.5828 19.9234 19.1647 19.8076C19.7467 19.6919 20.3499 19.7513 20.8981 19.9784C21.4462 20.2054 21.9148 20.5899 22.2444 21.0833C22.5741 21.5766 22.75 22.1567 22.75 22.75C22.75 23.5456 22.4339 24.3087 21.8713 24.8713C21.3087 25.4339 20.5456 25.75 19.75 25.75ZM30.25 28.75H24.9466C24.6196 28.1862 24.2029 27.6796 23.7128 27.25H28C28.1989 27.25 28.3897 27.171 28.5303 27.0303C28.671 26.8897 28.75 26.6989 28.75 26.5V17.5C28.75 17.3011 28.671 17.1103 28.5303 16.9697C28.3897 16.829 28.1989 16.75 28 16.75H16C15.8011 16.75 15.6103 16.829 15.4697 16.9697C15.329 17.1103 15.25 17.3011 15.25 17.5V26.5C15.2499 26.6663 15.3051 26.828 15.407 26.9595C15.5088 27.091 15.6514 27.185 15.8125 27.2266C15.3111 27.6609 14.8856 28.1758 14.5534 28.75H13.75V15.25H30.25V28.75Z" fill="#00A3FF"/>
</svg>
