<svg width="44" height="44" viewBox="0 0 44 44" fill="none" xmlns="http://www.w3.org/2000/svg">
<circle cx="22" cy="22" r="22" fill="#C317FF" fill-opacity="0.12"/>
<path d="M16.25 13C15.388 13 14.5614 13.3424 13.9519 13.9519C13.3424 14.5614 13 15.388 13 16.25V27.75C13 28.612 13.3424 29.4386 13.9519 30.0481C14.5614 30.6576 15.388 31 16.25 31H27.75C28.612 31 29.4386 30.6576 30.0481 30.0481C30.6576 29.4386 31 28.612 31 27.75V16.25C31 15.388 30.6576 14.5614 30.0481 13.9519C29.4386 13.3424 28.612 13 27.75 13H16.25ZM20.53 19.28L17.81 22L20.53 24.72C20.6037 24.7887 20.6628 24.8715 20.7038 24.9635C20.7448 25.0555 20.7668 25.1548 20.7686 25.2555C20.7704 25.3562 20.7518 25.4562 20.7141 25.5496C20.6764 25.643 20.6203 25.7278 20.549 25.799C20.4778 25.8703 20.393 25.9264 20.2996 25.9641C20.2062 26.0018 20.1062 26.0204 20.0055 26.0186C19.9048 26.0168 19.8055 25.9948 19.7135 25.9538C19.6215 25.9128 19.5387 25.8537 19.47 25.78L16.22 22.53C16.0795 22.3894 16.0007 22.1988 16.0007 22C16.0007 21.8012 16.0795 21.6106 16.22 21.47L19.47 18.22C19.5387 18.1463 19.6215 18.0872 19.7135 18.0462C19.8055 18.0052 19.9048 17.9832 20.0055 17.9814C20.1062 17.9796 20.2062 17.9982 20.2996 18.0359C20.393 18.0736 20.4778 18.1297 20.549 18.201C20.6203 18.2722 20.6764 18.357 20.7141 18.4504C20.7518 18.5438 20.7704 18.6438 20.7686 18.7445C20.7668 18.8452 20.7448 18.9445 20.7038 19.0365C20.6628 19.1285 20.6037 19.2113 20.53 19.28ZM24.53 18.22L27.78 21.47C27.9205 21.6106 27.9993 21.8012 27.9993 22C27.9993 22.1988 27.9205 22.3894 27.78 22.53L24.53 25.78C24.4613 25.8537 24.3785 25.9128 24.2865 25.9538C24.1945 25.9948 24.0952 26.0168 23.9945 26.0186C23.8938 26.0204 23.7938 26.0018 23.7004 25.9641C23.607 25.9264 23.5222 25.8703 23.451 25.799C23.3797 25.7278 23.3236 25.643 23.2859 25.5496C23.2482 25.4562 23.2296 25.3562 23.2314 25.2555C23.2332 25.1548 23.2552 25.0555 23.2962 24.9635C23.3372 24.8715 23.3963 24.7887 23.47 24.72L26.19 22L23.47 19.28C23.3375 19.1378 23.2654 18.9498 23.2688 18.7555C23.2723 18.5612 23.351 18.3758 23.4884 18.2384C23.6258 18.101 23.8112 18.0223 24.0055 18.0188C24.1998 18.0154 24.3878 18.0875 24.53 18.22Z" fill="#C317FF"/>
</svg>
