<svg width="24" height="24" viewBox="0 0 24 24" fill="none" xmlns="http://www.w3.org/2000/svg">
<path d="M6.25 3C5.38805 3 4.5614 3.34241 3.9519 3.9519C3.34241 4.5614 3 5.38805 3 6.25V17.75C3 18.612 3.34241 19.4386 3.9519 20.0481C4.5614 20.6576 5.38805 21 6.25 21H17.75C18.612 21 19.4386 20.6576 20.0481 20.0481C20.6576 19.4386 21 18.612 21 17.75V6.25C21 5.38805 20.6576 4.5614 20.0481 3.9519C19.4386 3.34241 18.612 3 17.75 3H6.25ZM10.53 9.28L7.81 12L10.53 14.72C10.6037 14.7887 10.6628 14.8715 10.7038 14.9635C10.7448 15.0555 10.7668 15.1548 10.7686 15.2555C10.7704 15.3562 10.7518 15.4562 10.7141 15.5496C10.6764 15.643 10.6203 15.7278 10.549 15.799C10.4778 15.8703 10.393 15.9264 10.2996 15.9641C10.2062 16.0018 10.1062 16.0204 10.0055 16.0186C9.90478 16.0168 9.80546 15.9948 9.71346 15.9538C9.62146 15.9128 9.53866 15.8537 9.47 15.78L6.22 12.53C6.07955 12.3894 6.00066 12.1988 6.00066 12C6.00066 11.8012 6.07955 11.6106 6.22 11.47L9.47 8.22C9.53866 8.14631 9.62146 8.08721 9.71346 8.04622C9.80546 8.00523 9.90478 7.98319 10.0055 7.98141C10.1062 7.97963 10.2062 7.99816 10.2996 8.03588C10.393 8.0736 10.4778 8.12974 10.549 8.20096C10.6203 8.27218 10.6764 8.35701 10.7141 8.4504C10.7518 8.54379 10.7704 8.64382 10.7686 8.74452C10.7668 8.84522 10.7448 8.94454 10.7038 9.03654C10.6628 9.12854 10.6037 9.21134 10.53 9.28ZM14.53 8.22L17.78 11.47C17.9205 11.6106 17.9993 11.8012 17.9993 12C17.9993 12.1988 17.9205 12.3894 17.78 12.53L14.53 15.78C14.4613 15.8537 14.3785 15.9128 14.2865 15.9538C14.1945 15.9948 14.0952 16.0168 13.9945 16.0186C13.8938 16.0204 13.7938 16.0018 13.7004 15.9641C13.607 15.9264 13.5222 15.8703 13.451 15.799C13.3797 15.7278 13.3236 15.643 13.2859 15.5496C13.2482 15.4562 13.2296 15.3562 13.2314 15.2555C13.2332 15.1548 13.2552 15.0555 13.2962 14.9635C13.3372 14.8715 13.3963 14.7887 13.47 14.72L16.19 12L13.47 9.28C13.3375 9.13783 13.2654 8.94978 13.2688 8.75548C13.2723 8.56118 13.351 8.37579 13.4884 8.23838C13.6258 8.10097 13.8112 8.02225 14.0055 8.01882C14.1998 8.0154 14.3878 8.08752 14.53 8.22Z" fill="#C317FF"/>
</svg>
