<svg width="20" height="20" viewBox="0 0 20 20" fill="none" xmlns="http://www.w3.org/2000/svg">
<path d="M10.0005 3.50049L0.878906 6.92119L10.0005 11.482L14.3451 9.30975L10.2694 8.06365C10.1855 8.1039 10.0936 8.12489 10.0005 8.1251C9.83479 8.1251 9.67582 8.05925 9.55861 7.94204C9.44139 7.82483 9.37555 7.66586 9.37555 7.5001C9.37555 7.33434 9.44139 7.17537 9.55861 7.05816C9.67582 6.94095 9.83479 6.8751 10.0005 6.8751L9.89719 7.21111L10.6213 7.43389C10.6214 7.43462 10.6215 7.43534 10.6216 7.43607L11.6901 7.76283L17.774 9.63467V10.1091C17.6898 10.1664 17.6209 10.2433 17.5733 10.3332C17.5256 10.4232 17.5007 10.5234 17.5005 10.6251C17.5007 10.7292 17.5268 10.8317 17.5765 10.9231C17.6263 11.0146 17.6981 11.0922 17.7854 11.1488C17.5009 12.224 17.5005 14.6635 17.5005 15.6251C18.1255 16.0312 18.1255 16.046 18.7505 15.6251C18.7505 14.6636 18.7502 12.2246 18.4658 11.1492C18.5532 11.0925 18.625 11.0148 18.6747 10.9233C18.7244 10.8318 18.7505 10.7293 18.7505 10.6251C18.7505 10.5232 18.7256 10.4229 18.678 10.3328C18.6303 10.2428 18.5613 10.1657 18.4771 10.1084V9.11545L16.1598 8.40244L19.1222 6.92119L10.0005 3.50049ZM4.67332 9.72666L4.1607 12.8024C5.18316 12.9362 6.40625 13.5304 7.53062 14.2332C8.17008 14.6329 8.76902 15.0716 9.25547 15.4972C9.55281 15.7574 9.80145 16.007 10.0005 16.2526C10.1996 16.007 10.4483 15.7574 10.7456 15.4972C11.2321 15.0716 11.831 14.6329 12.4705 14.2332C13.5948 13.5304 14.8179 12.9362 15.8404 12.8024L15.3277 9.72666H15.0836L10.0005 12.2682L4.91746 9.72666H4.67332Z" fill="#181C17" fill-opacity="0.72"/>
</svg>
