<svg width="52" height="52" viewBox="0 0 52 52" fill="none" xmlns="http://www.w3.org/2000/svg">
<path fill-rule="evenodd" clip-rule="evenodd" d="M31.3027 35.4835L43.9712 22.8518C45.7956 21.034 46.7077 20.124 47.1866 18.9691C47.6675 17.81 47.6675 16.5251 47.6675 13.9533V12.7248C47.6675 8.76848 47.6675 6.79031 46.4347 5.56181C45.2019 4.33331 43.2194 4.33331 39.2522 4.33331H38.0172C35.4389 4.33331 34.1497 4.33331 32.9905 4.81215C31.8292 5.29098 30.9171 6.20098 29.0906 8.01881L16.4242 20.6505C14.2922 22.7738 12.9706 24.0933 12.4592 25.3651C12.2998 25.7513 12.2173 26.165 12.2166 26.5828C12.2166 28.3205 13.6184 29.7201 16.4242 32.5173L16.8012 32.8921L21.2169 28.4093C21.3667 28.2572 21.545 28.1361 21.7416 28.053C21.9382 27.9698 22.1492 27.9262 22.3627 27.9245C22.5762 27.9229 22.7879 27.9634 22.9857 28.0436C23.1835 28.1238 23.3636 28.2422 23.5157 28.392C23.6678 28.5418 23.7889 28.7201 23.8721 28.9167C23.9552 29.1133 23.9989 29.3243 24.0005 29.5378C24.0021 29.7513 23.9616 29.963 23.8814 30.1608C23.8012 30.3586 23.6829 30.5387 23.5331 30.6908L19.1022 35.1866L19.3991 35.4835C22.2049 38.2785 23.6089 39.6781 25.3509 39.6781C25.7366 39.6781 26.1049 39.611 26.4754 39.4745C27.7819 38.9935 29.1166 37.6631 31.3027 35.4835ZM37.2546 20.6505C36.4643 21.4378 35.3942 21.8799 34.2786 21.8799C33.1631 21.8799 32.093 21.4378 31.3027 20.6505C30.9121 20.2615 30.6022 19.7993 30.3908 19.2903C30.1793 18.7813 30.0704 18.2355 30.0704 17.6843C30.0704 17.1331 30.1793 16.5873 30.3908 16.0783C30.6022 15.5693 30.9121 15.1071 31.3027 14.7181C32.093 13.9308 33.1631 13.4887 34.2786 13.4887C35.3942 13.4887 36.4643 13.9308 37.2546 14.7181C37.6451 15.1071 37.955 15.5693 38.1665 16.0783C38.378 16.5873 38.4868 17.1331 38.4868 17.6843C38.4868 18.2355 38.378 18.7813 38.1665 19.2903C37.955 19.7993 37.6451 20.2615 37.2546 20.6505Z" fill="#138601"/>
<path opacity="0.5" d="M19.5736 12.9198L14.0638 18.4166C13.0519 19.4263 12.1224 20.3515 11.3879 21.19C10.8916 21.7433 10.4429 22.3376 10.0468 22.9666L9.99478 22.9125L9.78894 22.7088C8.83048 21.7797 7.704 21.0415 6.46961 20.5335L6.20311 20.4251L5.38194 20.1001C5.12621 19.9993 4.89961 19.8364 4.72261 19.6261C4.5456 19.4158 4.42375 19.1647 4.36806 18.8955C4.31238 18.6263 4.3246 18.3475 4.40364 18.0842C4.48268 17.8209 4.62604 17.5815 4.82078 17.3875C7.24744 14.9651 10.1616 12.0596 11.5699 11.4768C12.7926 10.9638 14.1315 10.7923 15.4439 10.9806C16.6269 11.1561 17.7449 11.765 19.5736 12.9198ZM28.9834 41.8448C29.4276 42.2955 29.7201 42.614 29.9888 42.9541C30.3398 43.4026 30.6539 43.8793 30.9291 44.3798C31.2368 44.9431 31.4773 45.5433 31.9561 46.7458C32.0505 46.9728 32.1994 47.1731 32.3895 47.329C32.5797 47.4848 32.8053 47.5915 33.0464 47.6394C33.2876 47.6874 33.5368 47.6753 33.7722 47.604C34.0075 47.5328 34.2217 47.4048 34.3958 47.2311L34.5778 47.0513C37.0044 44.6311 39.9186 41.7256 40.5036 40.3238C41.0175 39.106 41.189 37.771 40.9998 36.4628C40.8243 35.282 40.2154 34.1661 39.0563 32.3418L33.5269 37.8538C32.4913 38.8873 31.5423 39.8341 30.6821 40.5751C30.1686 41.0215 29.6053 41.4635 28.9834 41.8448Z" fill="#138601"/>
</svg>
