<svg width="1440" height="537" viewBox="0 0 1440 537" fill="none" xmlns="http://www.w3.org/2000/svg">
<path d="M-5 533.787L-4.99994 2.72104M37.6471 533.787L37.6471 2.72104M80.2941 533.787L80.2942 2.72104M122.941 533.787L122.941 2.72104M165.588 533.787L165.588 2.72104M208.235 533.787L208.235 2.72104M250.882 533.787L250.882 2.72104M293.529 533.787L293.529 2.72104M336.176 533.787L336.177 2.72104M378.824 533.787L378.824 2.72104M421.471 533.787L421.471 2.72104M464.118 533.787L464.118 2.72104M506.765 533.787L506.765 2.72104M549.412 533.787L549.412 2.72104M592.059 533.787L592.059 2.72104M634.706 533.787L634.706 2.72104M677.353 533.787L677.353 2.72104M720 533.787L720 2.72104M762.647 533.787L762.647 2.72104M805.294 533.787L805.294 2.72104M847.941 533.787L847.941 2.72104M890.588 533.787L890.588 2.72104M933.235 533.787L933.235 2.72104M975.882 533.787L975.882 2.72104M1018.53 533.787L1018.53 2.72104M1061.18 533.787L1061.18 2.72104M1103.82 533.787L1103.82 2.72104M1146.47 533.787L1146.47 2.72104M1189.12 533.787L1189.12 2.72104M1231.76 533.787L1231.76 2.72104M1274.41 533.787L1274.41 2.72104M1317.06 533.787L1317.06 2.72104M1359.71 533.787V2.72104M1402.35 533.787V2.72104M1445 533.787V2.72104M-0.335446 0.999997L1439 1.00006M-0.335448 16.7353L1439 16.7353M-0.33545 32.4706L1439 32.4706M-0.335452 48.2059L1439 48.2059M-0.335454 63.9412L1439 63.9412M-0.335456 79.6765L1439 79.6765M-0.335457 95.4118L1439 95.4118M-0.335459 111.147L1439 111.147M-0.335461 126.882L1439 126.882M-0.335463 142.618L1439 142.618M-0.335464 158.353L1439 158.353M-0.335466 174.088L1439 174.088M-0.335468 189.824L1439 189.824M-0.33547 205.559L1439 205.559M-0.335472 221.294L1439 221.294M-0.335474 237.029L1439 237.029M-0.335476 252.765L1439 252.765M-0.335478 268.5L1439 268.5M-0.33548 284.235L1439 284.235M-0.335482 299.971L1439 299.971M-0.335483 315.706L1439 315.706M-0.335485 331.441L1439 331.441M-0.335487 347.176L1439 347.176M-0.335489 362.912L1439 362.912M-0.335491 378.647L1439 378.647M-0.335493 394.382L1439 394.382M-0.335495 410.118L1439 410.118M-0.335497 425.853L1439 425.853M-0.335498 441.588L1439 441.588M-0.3355 457.323L1439 457.324M-0.335502 473.059L1439 473.059M-0.335504 488.794L1439 488.794M-0.335506 504.529L1439 504.529M-0.335508 520.265L1439 520.265M-0.33551 536L1439 536" stroke="url(#paint0_linear_85_262)"/>
<defs>
<linearGradient id="paint0_linear_85_262" x1="735.5" y1="1180.47" x2="693.531" y2="1.94255" gradientUnits="userSpaceOnUse">
<stop stop-color="#192666" stop-opacity="0.28"/>
<stop offset="0.910084" stop-color="#192666" stop-opacity="0.04"/>
</linearGradient>
</defs>
</svg>
