<svg width="1440" height="986" viewBox="0 0 1440 986" fill="none" xmlns="http://www.w3.org/2000/svg">
<path d="M-5 1040.59L-4.99994 -17.5708M37.6471 1040.59L37.6471 -17.5708M80.2941 1040.59L80.2942 -17.5708M122.941 1040.59L122.941 -17.5708M165.588 1040.59L165.588 -17.5708M208.235 1040.59L208.235 -17.5708M250.882 1040.59L250.882 -17.5708M293.529 1040.59L293.529 -17.5708M336.176 1040.59L336.177 -17.5708M378.824 1040.59L378.824 -17.5708M421.471 1040.59L421.471 -17.5708M464.118 1040.59L464.118 -17.5708M506.765 1040.59L506.765 -17.5708M549.412 1040.59L549.412 -17.5708M592.059 1040.59L592.059 -17.5708M634.706 1040.59L634.706 -17.5708M677.353 1040.59L677.353 -17.5708M720 1040.59L720 -17.5708M762.647 1040.59L762.647 -17.5708M805.294 1040.59L805.294 -17.5708M847.941 1040.59L847.941 -17.5708M890.588 1040.59L890.588 -17.5708M933.235 1040.59L933.235 -17.5708M975.882 1040.59L975.882 -17.5708M1018.53 1040.59L1018.53 -17.5708M1061.18 1040.59L1061.18 -17.5708M1103.82 1040.59L1103.82 -17.5708M1146.47 1040.59L1146.47 -17.5708M1189.12 1040.59L1189.12 -17.5708M1231.76 1040.59L1231.76 -17.5708M1274.41 1040.59L1274.41 -17.5708M1317.06 1040.59L1317.06 -17.5708M1359.71 1040.59V-17.5708M1402.35 1040.59V-17.5708M1445 1040.59V-17.5708M-0.335446 -21L1439 -20.9999M-0.335448 10.3529L1439 10.3531M-0.33545 41.7059L1439 41.706M-0.335452 73.0589L1439 73.0589M-0.335454 104.412L1439 104.412M-0.335456 135.765L1439 135.765M-0.335457 167.118L1439 167.118M-0.335459 198.471L1439 198.471M-0.335461 229.824L1439 229.824M-0.335463 261.176L1439 261.177M-0.335464 292.529L1439 292.529M-0.335466 323.882L1439 323.882M-0.335468 355.235L1439 355.235M-0.33547 386.588L1439 386.588M-0.335472 417.941L1439 417.941M-0.335474 449.294L1439 449.294M-0.335476 480.647L1439 480.647M-0.335478 512L1439 512M-0.33548 543.353L1439 543.353M-0.335482 574.706L1439 574.706M-0.335483 606.059L1439 606.059M-0.335485 637.412L1439 637.412M-0.335487 668.765L1439 668.765M-0.335489 700.118L1439 700.118M-0.335491 731.471L1439 731.471M-0.335493 762.823L1439 762.824M-0.335495 794.176L1439 794.176M-0.335497 825.529L1439 825.529M-0.335498 856.882L1439 856.882M-0.3355 888.235L1439 888.235M-0.335502 919.588L1439 919.588M-0.335504 950.941L1439 950.941M-0.335506 982.294L1439 982.294M-0.335508 1013.65L1439 1013.65M-0.33551 1045L1439 1045" stroke="url(#paint0_linear_1_121)" stroke-opacity="0.08"/>
<defs>
<linearGradient id="paint0_linear_1_121" x1="665.5" y1="-152" x2="877.5" y2="1200.5" gradientUnits="userSpaceOnUse">
<stop offset="0.547123" stop-color="#6B00BF" stop-opacity="0.9"/>
<stop offset="1" stop-color="#6B00BF" stop-opacity="0.12"/>
</linearGradient>
</defs>
</svg>
