<svg width="52" height="52" viewBox="0 0 52 52" fill="none" xmlns="http://www.w3.org/2000/svg">
<path d="M25.4971 1.625C16.8602 1.625 9.85157 8.5735 9.75082 17.1909V17.199C9.74712 17.3122 9.74712 17.4254 9.75082 17.5386C9.75569 17.7499 9.77032 18.0408 9.80444 18.3966C9.94324 20.5764 10.5349 22.7033 11.5415 24.6417C12.5482 26.5801 13.9479 28.2874 15.6512 29.6546C18.6347 33.0216 19.3724 36.0376 19.4553 37.0516V37.0614C19.4667 37.167 19.4829 37.2726 19.5041 37.375H19.4992V40.2838L31.6867 37.8495V37.7682C31.7793 37.5473 31.8394 37.31 31.8606 37.0614V37.05C31.9532 35.9304 32.4456 32.9485 35.3592 29.6709C37.0714 28.2968 38.4765 26.5791 39.4838 24.6285C40.4911 22.6779 41.0784 20.5378 41.2076 18.3463C41.2365 18.0377 41.2539 17.7282 41.2596 17.4184V17.2347C41.1507 8.5865 34.1437 1.625 25.4971 1.625ZM13.0008 17.2412C13.0351 13.9496 14.3667 10.8044 16.7065 8.48899C19.0463 6.17353 22.2053 4.87482 25.4971 4.875C32.3497 4.875 37.9186 10.3886 38.0096 17.2689V17.42C38.0096 17.5061 37.9998 17.7027 37.9673 18.0976L37.9641 18.1171V18.1383C37.8629 19.8992 37.3889 21.6186 36.5734 23.1826C35.7579 24.7466 34.6196 26.1196 33.2337 27.2106L33.1248 27.2951L33.0322 27.3975C29.9642 30.8019 29.0136 34.0551 28.7211 35.9613H27.6941C27.7672 33.4669 28.0987 28.8194 29.5108 27.2675C30.9083 26.1625 31.8346 24.4887 31.9483 22.5875C31.9646 22.4087 31.9646 22.295 31.9646 22.2138V22.1488C31.947 20.4492 31.2596 18.8252 30.0517 17.6295C28.8438 16.4337 27.213 15.7628 25.5133 15.7625C24.1761 15.763 22.8723 16.18 21.783 16.9557C20.6938 17.7313 19.8732 18.827 19.4354 20.0905C18.9975 21.354 18.9642 22.7225 19.3399 24.0058C19.7157 25.2891 20.4819 26.4235 21.5321 27.2513C22.9328 28.8161 23.2773 33.4669 23.3602 35.9613H22.5802C22.2162 33.9999 21.0104 30.7596 17.9814 27.3845L17.8872 27.2805L17.7767 27.1944C16.3967 26.1071 15.262 24.7404 14.4471 23.1839C13.6321 21.6274 13.1553 19.9163 13.0479 18.1626L13.0447 18.1334L13.0414 18.1025C13.015 17.8406 13.0009 17.5776 12.9992 17.3144V17.2673L13.0008 17.2429V17.2412ZM25.5133 17.3875C28.1458 17.3875 30.2908 19.5163 30.3233 22.1488V22.2787C30.3233 22.3275 30.3233 22.3925 30.3071 22.49C30.2258 23.855 29.5596 25.1388 28.4871 25.9837L28.3733 26.065L28.2758 26.1625C26.4883 28.145 26.1146 33.1825 26.0496 35.945H24.9933C24.9121 33.1825 24.5221 28.145 22.7346 26.1625L22.6371 26.065L22.5233 25.9837C21.9866 25.5593 21.5466 25.0251 21.2327 24.4171C20.9189 23.809 20.7384 23.1409 20.7033 22.4575C20.703 22.4248 20.6997 22.3921 20.6936 22.36C20.6901 22.3439 20.688 22.3276 20.6871 22.3112V22.165C20.7358 19.5325 22.8971 17.3875 25.5133 17.3875ZM31.6867 39.507L19.4992 41.9412V43.5159L31.6867 40.9484V39.507ZM19.4992 45.5V45.175L31.6867 42.6091V45.5C31.6867 45.931 31.5155 46.3443 31.2107 46.649C30.906 46.9538 30.4927 47.125 30.0617 47.125H28.2482C27.9735 47.6139 27.5746 48.0217 27.0918 48.307C26.6091 48.5924 26.0595 48.7452 25.4987 48.75C24.9379 48.7452 24.3883 48.5924 23.9055 48.307C23.4227 48.0217 23.0239 47.6139 22.7492 47.125H21.1242C20.6932 47.125 20.2799 46.9538 19.9751 46.649C19.6704 46.3443 19.4992 45.931 19.4992 45.5Z" fill="#FDC553"/>
</svg>
