<svg width="52" height="52" viewBox="0 0 52 52" fill="none" xmlns="http://www.w3.org/2000/svg">
<path d="M23.832 25.9999C23.832 26.5746 24.0603 27.1257 24.4666 27.532C24.873 27.9383 25.4241 28.1666 25.9987 28.1666C26.5733 28.1666 27.1244 27.9383 27.5308 27.532C27.9371 27.1257 28.1654 26.5746 28.1654 25.9999C28.1654 25.4253 27.9371 24.8742 27.5308 24.4679C27.1244 24.0615 26.5733 23.8333 25.9987 23.8333C25.4241 23.8333 24.873 24.0615 24.4666 24.4679C24.0603 24.8742 23.832 25.4253 23.832 25.9999Z" stroke="#C317FF" stroke-width="1.66667" stroke-linecap="round" stroke-linejoin="round"/>
<path d="M25.9996 15.1666C23.857 15.1666 21.7625 15.802 19.9809 16.9924C18.1994 18.1828 16.8109 19.8747 15.9909 21.8542C15.171 23.8338 14.9564 26.012 15.3744 28.1134C15.7924 30.2149 16.8242 32.1452 18.3393 33.6603C19.8543 35.1754 21.7847 36.2071 23.8861 36.6251C25.9876 37.0431 28.1658 36.8286 30.1453 36.0087C32.1249 35.1887 33.8168 33.8002 35.0072 32.0186C36.1976 30.2371 36.8329 28.1426 36.8329 26" stroke="#C317FF" stroke-width="1.66667" stroke-linecap="round" stroke-linejoin="round"/>
<path d="M28.1662 6.61915C24.1494 6.1685 20.0917 6.97725 16.5546 8.93352C13.0175 10.8898 10.1757 13.8969 8.42235 17.5388C6.66898 21.1808 6.0907 25.2776 6.76749 29.2626C7.44429 33.2476 9.34271 36.9238 12.2002 39.7827C15.0576 42.6416 18.7328 44.5418 22.7175 45.2206C26.7021 45.8994 30.7992 45.3232 34.4421 43.5717C38.0849 41.8202 41.0935 38.9799 43.0515 35.4437C45.0096 31.9076 45.8203 27.8504 45.3717 23.8333" stroke="#C317FF" stroke-width="1.66667" stroke-linecap="round" stroke-linejoin="round"/>
<path d="M32.5 19.5V13L39 6.5V13H45.5L39 19.5H32.5ZM32.5 19.5L26 26" stroke="#C317FF" stroke-width="1.66667" stroke-linecap="round" stroke-linejoin="round"/>
</svg>
