<svg width="20" height="20" viewBox="0 0 20 20" fill="none" xmlns="http://www.w3.org/2000/svg">
<g clip-path="url(#clip0_5_473)">
<path d="M10.0007 17.5002C10.9856 17.5002 11.9608 17.3062 12.8708 16.9293C13.7807 16.5523 14.6075 15.9999 15.304 15.3035C16.0004 14.607 16.5528 13.7802 16.9297 12.8703C17.3067 11.9603 17.5006 10.9851 17.5006 10.0002C17.5006 9.01525 17.3067 8.03998 16.9297 7.13004C16.5528 6.22009 16.0004 5.3933 15.304 4.69686C14.6075 4.00042 13.7807 3.44798 12.8708 3.07107C11.9608 2.69416 10.9856 2.50016 10.0007 2.50016C8.01153 2.50016 6.10387 3.29034 4.69735 4.69686C3.29083 6.10338 2.50065 8.01104 2.50065 10.0002C2.50065 11.9893 3.29083 13.8969 4.69735 15.3035C6.10387 16.71 8.01153 17.5002 10.0007 17.5002ZM19.1673 10.0002C19.1673 15.0627 15.0631 19.1668 10.0007 19.1668C4.93815 19.1668 0.833984 15.0627 0.833984 10.0002C0.833984 4.93766 4.93815 0.833496 10.0007 0.833496C15.0631 0.833496 19.1673 4.93766 19.1673 10.0002ZM12.5007 13.6785L9.16732 10.3452V4.5835H10.834V9.65516L13.679 12.5002L12.5007 13.6785Z" fill="#181C17" fill-opacity="0.72"/>
</g>
<defs>
<clipPath id="clip0_5_473">
<rect width="20" height="20" fill="white"/>
</clipPath>
</defs>
</svg>
