<svg width="24" height="24" viewBox="0 0 24 24" fill="none" xmlns="http://www.w3.org/2000/svg">
<path d="M22.212 5.65599C21.4489 5.99359 20.6396 6.21536 19.811 6.31399C20.6841 5.79112 21.3373 4.96873 21.649 3.99999C20.829 4.48799 19.93 4.82999 18.994 5.01499C18.3646 4.34157 17.5304 3.89495 16.621 3.74457C15.7116 3.59419 14.7779 3.74848 13.9653 4.18344C13.1526 4.6184 12.5064 5.30967 12.1271 6.14978C11.7478 6.98989 11.6568 7.93177 11.868 8.82899C10.2049 8.74578 8.57797 8.31371 7.09274 7.56085C5.60752 6.80799 4.29724 5.75116 3.247 4.45899C2.87529 5.09744 2.67996 5.82321 2.681 6.56199C2.681 8.01199 3.42 9.29299 4.541 10.043C3.87702 10.022 3.22765 9.84273 2.647 9.51999V9.57099C2.64697 10.5369 2.98104 11.473 3.59253 12.2207C4.20403 12.9683 5.05532 13.4814 6.002 13.673C5.38564 13.8402 4.7393 13.8648 4.112 13.745C4.37893 14.5764 4.89922 15.3035 5.6 15.8244C6.30078 16.3453 7.14696 16.634 8.02 16.65C7.15236 17.3314 6.15889 17.8352 5.09641 18.1324C4.03393 18.4295 2.92329 18.5144 1.828 18.382C3.73972 19.6114 5.96511 20.2641 8.238 20.262C15.932 20.262 20.138 13.889 20.138 8.36199C20.138 8.18199 20.134 7.99999 20.126 7.82099C20.9444 7.22935 21.6508 6.49555 22.212 5.65599Z" fill="#138601"/>
</svg>
